<svg xmlns="http://www.w3.org/2000/svg" width="1220" height="1220" fill="none" viewBox="0 0 1220 1220"><g clip-path="url(#clip0)"><path fill="#A4E4FF" d="M976.916 260.042L617.221 152.134C612.185 150.622 606.817 150.622 601.781 152.134L242.084 260.042C230.72 263.451 222.94 273.91 222.94 285.774V681.438C222.94 732.901 243.773 785.584 284.861 838.017C316.241 878.065 359.659 918.28 413.901 957.543C505.023 1023.5 594.749 1063.96 598.523 1065.65C602.015 1067.22 605.759 1068 609.502 1068C613.245 1068 616.988 1067.22 620.481 1065.65C624.254 1063.96 713.981 1023.5 805.102 957.543C859.343 918.278 902.757 878.065 934.14 838.017C975.227 785.584 996.06 732.903 996.06 681.438V285.774C996.06 273.91 988.278 263.451 976.916 260.042Z"/><path fill="#75D8F8" d="M976.916 260.042L617.221 152.134C614.703 151.378 612.101 151 609.5 151V1068H609.502C613.245 1068 616.988 1067.22 620.481 1065.65C624.254 1063.96 713.981 1023.5 805.102 957.543C859.343 918.278 902.757 878.065 934.14 838.017C975.227 785.584 996.06 732.903 996.06 681.438V285.774C996.06 273.91 988.278 263.451 976.916 260.042Z"/></g><defs><clipPath id="clip0"><rect width="917" height="917" fill="#fff" transform="translate(151 151)"/></clipPath></defs></svg>